<svg xmlns="http://www.w3.org/2000/svg" class="svg-logo" width="2400" height="2400" viewBox="0 0 630 430" style="height: auto;"><rect width="630" height="630" y="-100" rx="0" ry="0" fill="transparent" fill-opacity="0"></rect><g data-element="wrapper" transform="translate(-204.75000000000327 -131.50000000000222) scale(1.6500000000000103)"><g ><path d="M170.57 182.28L170.57 233.25L157.86 233.25L157.86 182.28L138.71 182.28L138.71 169.53L189.67 169.53L189.67 182.28L170.57 182.28ZM203.09 207.03L203.09 233.25L190.96 233.25L190.96 185.66L193.89 185.66L197.89 191.30Q200.83 188.64 204.56 187.19Q208.29 185.75 212.29 185.75L212.29 185.75L223.00 185.75L223.00 197.84L212.29 197.84Q210.38 197.84 208.69 198.55Q207.00 199.26 205.76 200.50Q204.51 201.75 203.80 203.44Q203.09 205.12 203.09 207.03L203.09 207.03ZM273.83 185.75L273.83 233.25L270.90 233.25L266.19 226.72Q264.46 228.27 262.52 229.63Q260.59 230.98 258.46 231.98Q256.32 232.98 254.08 233.56Q251.84 234.14 249.53 234.14L249.53 234.14Q244.50 234.14 240.08 232.45Q235.66 230.76 232.35 227.54Q229.04 224.32 227.13 219.65Q225.22 214.99 225.22 209.03L225.22 209.03Q225.22 203.48 227.13 198.84Q229.04 194.19 232.35 190.86Q235.66 187.53 240.08 185.68Q244.50 183.84 249.53 183.84L249.53 183.84Q251.84 183.84 254.10 184.42Q256.37 185.00 258.50 186.02Q260.63 187.04 262.57 188.42Q264.50 189.79 266.19 191.39L266.19 191.39L270.90 185.75L273.83 185.75ZM261.61 209.03L261.61 209.03Q261.61 206.55 260.66 204.21Q259.70 201.88 258.06 200.08Q256.41 198.28 254.21 197.19Q252.01 196.10 249.53 196.10L249.53 196.10Q247.04 196.10 244.84 196.95Q242.64 197.79 241.02 199.44Q239.39 201.08 238.46 203.50Q237.53 205.92 237.53 209.03L237.53 209.03Q237.53 212.14 238.46 214.57Q239.39 216.99 241.02 218.63Q242.64 220.28 244.84 221.12Q247.04 221.96 249.53 221.96L249.53 221.96Q252.01 221.96 254.21 220.88Q256.41 219.79 258.06 217.99Q259.70 216.19 260.66 213.85Q261.61 211.52 261.61 209.03ZM295.20 206.06L295.20 233.25L283.07 233.25L283.07 185.66L286.01 185.66L290.00 190.28Q292.94 187.62 296.65 186.17Q300.36 184.73 304.40 184.73L304.40 184.73Q308.76 184.73 312.62 186.39Q316.49 188.06 319.37 190.97Q322.26 193.88 323.93 197.77Q325.60 201.66 325.60 206.06L325.60 206.06L325.60 233.25L313.47 233.25L313.47 206.06Q313.47 204.19 312.75 202.52Q312.04 200.86 310.80 199.61Q309.56 198.37 307.91 197.66Q306.27 196.95 304.40 196.95L304.40 196.95Q302.49 196.95 300.80 197.66Q299.11 198.37 297.87 199.61Q296.62 200.86 295.91 202.52Q295.20 204.19 295.20 206.06L295.20 206.06ZM371.36 221.16L371.36 233.25L331.68 233.25L351.72 197.84L331.68 197.84L331.68 185.75L371.36 185.75L351.32 221.16L371.36 221.16ZM392.11 220.50L392.11 233.25L379.36 233.25L379.36 169.53L392.11 169.53L392.11 201.39L415.84 169.53L430.33 169.53L410.20 196.41L430.33 233.25L415.84 233.25L401.84 207.48L392.11 220.50ZM449.70 172.73L449.70 172.73Q449.70 174.42 449.05 175.89Q448.41 177.35 447.30 178.44Q446.19 179.53 444.70 180.17Q443.21 180.82 441.52 180.82L441.52 180.82Q439.83 180.82 438.35 180.17Q436.86 179.53 435.77 178.44Q434.68 177.35 434.04 175.89Q433.39 174.42 433.39 172.73L433.39 172.73Q433.39 171.09 434.04 169.60Q434.68 168.11 435.77 167.02Q436.86 165.93 438.35 165.29Q439.83 164.64 441.52 164.64L441.52 164.64Q443.21 164.64 444.70 165.29Q446.19 165.93 447.30 167.02Q448.41 168.11 449.05 169.60Q449.70 171.09 449.70 172.73ZM447.61 185.66L447.61 233.25L435.39 233.25L435.39 185.66L447.61 185.66ZM489.91 233.25L480.71 233.25Q476.31 233.25 472.45 231.58Q468.58 229.92 465.67 227.01Q462.76 224.10 461.10 220.23Q459.43 216.37 459.43 211.97L459.43 211.97L459.43 197.84L453.52 197.84L453.52 185.75L459.43 185.75L459.43 166.73L471.52 166.73L471.52 185.75L489.91 185.75L489.91 197.84L471.52 197.84L471.52 211.97Q471.52 213.88 472.23 215.54Q472.94 217.21 474.18 218.45Q475.43 219.70 477.11 220.43Q478.80 221.16 480.71 221.16L480.71 221.16L489.91 221.16L489.91 233.25Z" data-element="company-name" data-text-path="" data-text="TranzKit" data-font-family="Righteous" fill="#0f2e63" fill-opacity="1"></path></g></g></svg>